<?xml version="1.0" encoding="UTF-8"?>
<svg id="Layer_1" xmlns="http://www.w3.org/2000/svg" version="1.1" viewBox="0 0 1440 810">
  <!-- Generator: Adobe Illustrator 29.5.1, SVG Export Plug-In . SVG Version: 2.1.0 Build 141)  -->
  <defs>
    <style>
      .st0 {
        fill: #fff;
      }
    </style>
  </defs>
  <path class="st0" d="M1524-84v810H84V-84h1440ZM504,108.75c-3.42-3.42-9.37-7.78-13.12-11.25s-8.58-9.23-12.75-12c-.73-.48-2.77-1.11-3.75-1.5-.32-.13-.48-.69-.75-.75-1.09-.24-6.32-.21-7.5,0-.28.05-.44.66-.75.75-.48.14-1.08-.16-1.5,0-4.15,1.54-7.81,6.66-11.25,9.75-13.05,11.71-27.21,25.97-39.75,36.75-9.98,8.58-18.42,20.39-28.88,27.75-1.32,2.37-4.88,6.25-7.12,7.5-5.67,3.16-14.58,17.09-20.25,20.25-2.04,1.13-.72,1.1-1.12,1.5-.27.27-3.8,1.4-3,3-20.58,17.31-39.57,39.57-58.5,58.5-.14.14-1.36-.14-1.5,0s-.18,2.06-1.88,3c-2.04,1.13-16.67,16.67-17.62,18.38-1.73,3.11-7.95,7.5-10.5,11.25-.35.51-1.4,1.15-1.5,1.5-.32,1.12-.24,2.77-1.5,3.75v273.75c1.26.98,1.18,2.63,1.5,3.75.12.41,2.39,2.29,3,3,.11.13-.13.57,0,.75.98,1.3,1.91,1.37,2.62,1.88.54.38.98,1.19,1.5,1.5.16.1.52-.11.75,0,.32.15.47.67.75.75,1.01.28,2.31-.52,3,.75h399c.98-1.26,2.63-1.18,3.75-1.5.14-.04,2.05-1.35,2.25-1.5.63-.46,4.78-4.54,4.88-4.88.13-.46-.13-1.04,0-1.5.12-.42,1.39-1.09,1.5-1.5.5-1.83.02-5.21,1.5-6.75v-266.25c-1.59-1.19-1.15-3.23-1.5-4.5s-3.84-4.06-4.5-5.25c-.76-1.37-.74-.88-1.5-2.25-2.15-3.85-11.35-9.65-13.5-13.5-.33-.58.7-1.49-1.5-1.12-15.73-18.11-34.75-35.77-52.12-52.5-4.83-4.66-12.39-13.46-16.5-15.75-4.81-2.68-22.16-21.73-27.75-27s-20.04-19.87-24.75-22.5c-2.39-1.33-8.57-8.76-11.25-11.25-5.78-5.36-12.94-11.16-18.75-16.5-1.73-1.59-5.19-5.88-6.75-6.75-2.04-1.13-.72-1.1-1.12-1.5ZM763.12,295.5h36.75c.08,0,1.12-1.05,1.12-1.12v-64.5c0-.08,1.05-1.12,1.12-1.12h21c.13,0,.75-1.18,2.25-.75.18.05,2.32,2.2,2.62,2.62.11.16-.12.57,0,.75,3.79,5.58,6.97,12.98,10.5,18.75,3.21,5.26,10.46,15.64,12,21,.12.43,2.88,3.32,3,3.75,1.33,4.63,6.39,11.38,9,15.75.52.87.98,2.94,1.5,3.75.26.4.81.72,1.12,1.12h43.88c.28-1.7-2.76-4.04-3-4.88-1.01-3.52-3.99-7.24-6-10.5-4.51-7.3-9.07-15.29-13.5-22.5-3.23-5.26-10.48-14.93-12-20.25-.47-1.65-7.5-11.51-9-14.25-.33-.6-.38-1.65-1.5-2.25.66-.5,1.23-1.47,1.88-1.88,5.45-3.45,17.37-9.53,20.62-15.38.76-1.37.74-.88,1.5-2.25,1.07-1.92,2.06-1.21,3-4.5.24-.82,4.16-5.53,4.5-6.75.18-.64-.18-1.61,0-2.25.11-.41,1.39-1.09,1.5-1.5.18-.64-.17-1.61,0-2.25.09-.33,1.44-1.97,1.5-2.25.38-1.75.22-3.14.75-5.25,1.34-5.39,1.34-20.11,0-25.5-.44-1.77-.41-2.95-.75-4.5-.06-.26-1.44-1.99-1.5-2.25-.19-.88.22-2.19,0-3-.11-.41-1.39-1.09-1.5-1.5-.18-.64.18-1.61,0-2.25-.1-.36-2.89-4.11-3-4.5-1.46-5.1-5.35-6.64-7.5-10.5-.2-.35.14-.98,0-1.12s-.77.2-1.12,0c-1.85-1.03-5.38-5.34-7.5-6.75-3.09-2.05-8.71-4.72-12-6-7.78-3.02-15.91-3.79-24-5.25h-77.62l-.75,190.88c.4.26.82,1.04,1.12,1.12ZM1227,120v33.75h-18.38c-.08,0-1.12,1.05-1.12,1.12v28.5c0,.08,1.05,1.12,1.12,1.12h18.38c.11,0-.23,1.51.75,1.88.37,27.7-.83,56.06.75,83.25,2.11,4.08,3.25,8.46,6,12,.88,1.14,8.05,7.71,8.62,7.88,1.9.55,2.59,1.38,3,1.5,2.98.86,5.19,1.61,8.25,2.25,12.88,2.69,26.47,2.85,39.75.75,1.03-.16,2.29.11,3.38,0v-31.5c-1.31-.59-2.39.72-2.62.75-1.8.26-4.6.64-6,.75-2.94.24-8.42.35-11.25,0-.27-.03-.46-.7-.75-.75-.92-.16-2.12.18-3,0-.28-.06-.44-.65-.75-.75-.45-.14-1.03.13-1.5,0-1.39-.4-4.46-5.33-5.62-6.38v-71.62h31.5v-29.62c0-.08-1.05-1.12-1.12-1.12h-30.38c-.33-7.26.45-14.9,0-22.12-.25-3.94-.96-4.35,0-9,.7-3.42-.37-2.22-1.88-2.62-.3-.08-.48-.71-.75-.75-10.22-1.51-23.89,1.12-34.5,0-.39.96-1.79.67-1.88.75ZM1048.5,236.25v-22.88c0-.22-1.43-3.33-1.5-3.75-.19-1.15.23-2.68,0-3.75-.06-.26-1.44-1.99-1.5-2.25-.19-.88.19-2.12,0-3-.06-.28-1.41-1.92-1.5-2.25-.17-.64.18-1.61,0-2.25-.11-.41-1.39-1.09-1.5-1.5-.18-.64.18-1.61,0-2.25-.1-.36-2.89-4.11-3-4.5-1.4-4.87-5.36-7.56-7.5-12-19.29-22.79-44.94-27.67-72.38-20.62-11.36,2.92-21.85,9.59-29.62,18.38-2.28,2.57-6.64,8.26-7.5,11.25-.38,1.34-4.14,6.19-4.5,7.5-.18.64.18,1.61,0,2.25-.11.41-1.39,1.09-1.5,1.5-.23.82.23,2.18,0,3-.11.41-1.39,1.09-1.5,1.5-.27.99.23,2.67,0,3.75-.06.26-1.44,1.99-1.5,2.25-.43,1.98-.26,4.32-.75,6.75-1.27,6.37-1.13,14.65,0,21,.57,3.21.16,7.79.75,10.5.06.26,1.44,1.99,1.5,2.25.87,4.05,1.18,5.86,3,9.75,1.02,2.18,2.34,5.21,3,7.5s9.51,12.04,11.62,13.88c11.68,10.1,18.91,13.86,33.75,16.5,9.3,1.65,18.85,1.97,28.5.75,6.06-.77,10.82-1.45,16.5-3,2.75-.75,13.59-7.26,15.75-9,1.18-.95,2.68-3.15,3.75-3.75,2.04-1.13.72-1.1,1.12-1.5s.37.91,1.5-1.12,6.87-7.55,7.5-9.75c.88-3.09,3.87-6.99,4.5-9.75.17-.74-.11-1.79,0-2.62-1.08-.11-2.34.16-3.38,0-7.5-1.2-15.79-2.97-23.25-4.5-1.04-.21-2.66-.7-3-.75-1.16-.17-2.54.12-3.75,0-.68,1.06-2.05,2.43-2.62,3.38-.84,1.38-1.07,2.24-1.5,3.75-.56,1.94-7.69,6.5-9.38,7.88-7.81,2.35-14.32,3.26-22.5,2.25-.27-.03-.46-.7-.75-.75-1.62-.29-2.2-.31-3.75-.75-5.36-1.52-11.08-4.82-14.62-9.38-.27-.35-2.93-4.23-3-4.5-.18-.64.18-1.61,0-2.25-.11-.41-1.39-1.09-1.5-1.5-.27-.97.2-2.63,0-3.75-.05-.26-1.45-2.74-1.5-3-.24-1.33-.2-4.51,1.12-4.88h96.38ZM1104,294.75v-88.88c0-.14,1.44-1.98,1.5-2.25.19-.88-.22-2.19,0-3,.11-.41,1.38-1.08,1.5-1.5.38-1.33.65-2.58,1.5-3.75,1.84-2.54,6.66-6.69,9.38-7.88.41-.18,1.06.18,1.5,0s1.98-1.44,2.25-1.5c1.07-.23,2.59.17,3.75,0,.28-.04.48-.72.75-.75,2.26-.23,6.78-.27,9,0,.27.03.46.7.75.75.92.16,2.13-.19,3,0,.27.06,1.82,1.33,2.25,1.5,1.1.44,3.29.7,4.5,1.5.89.59,4.2,3.95,4.88,4.88.15.2,1.46,2.11,1.5,2.25.28.96.48,1.47.75,2.25.91,2.62.94,5.47,1.5,8.25.06.29.75.5.75.75v87c0,.08,1.05,1.12,1.12,1.12h35.25c.21,0,.74-.88,1.12-1.12v-95.25c-1.65-5.24-1.54-11.15-3-16.5-.09-.33-1.41-1.92-1.5-2.25-.17-.64.18-1.61,0-2.25-.11-.41-1.38-1.08-1.5-1.5-.9-3.14-2.47-4.8-4.5-7.5-4.25-5.66-10.12-11.05-16.88-13.88-.42-.18-1.07.17-1.5,0s-1.98-1.44-2.25-1.5c-1.96-.42-4.73-.39-6.75-.75-.29-.05-.48-.72-.75-.75-4.56-.56-15.6-.48-20.25,0-.27.03-.47.71-.75.75-2.07.31-3.89.11-6,.75-6.09,1.86-11.69,5.36-16.5,9-1.72,1.3-4.32,5.16-4.88,7.12-.15.53-2.04,2.22-3,1.88v-17.25c-3.6-.13-7.27.18-10.88,0-6.22-.32-11.7-.49-18,0-2.34.18-4.78-.13-7.12,0v139.88c0,.08,1.05,1.12,1.12,1.12h34.5c.23,0,.42-.61.75-.75.4-.17.99.13,1.12,0ZM802.88,333.75h-38.25l-1.12,189c1.13-.41,1.72.75,1.88.75h33.75c.23,0,.42-.61.75-.75.36-.15,1.12.1,1.12,0v-121.88c0-.15,1.27-1.38,1.5-1.12-.39,1.46.95,1.76,1.5,2.62,2.41,3.8,4.91,8.2,7.5,12,5.86,8.61,10.11,17.79,16.5,26.25,15.24,25.02,29.64,50.14,45,74.25,1.24,1.95,3.14,4.07,4.5,6,.15.22.13,1.45,1.12,1.88,4.49.14,9.02-.19,13.5,0,6.41.27,12.24.5,18.75,0,2.34-.18,4.78.13,7.12,0v-187.88c0-.08-1.05-1.12-1.12-1.12h-36c-.08,0-1.09.99-1.12,1.12-.42,1.45,1.18,2.33.75,3.75-2.87,9.45-.14,28.8,0,39,.31,22.41.22,45.62-.75,67.5-.22,4.95-.17,9.77.75,14.25.74,3.58-2.67,1.14-3,0-.79-2.77-2.4-5.1-4.5-7.5-23.06-38.49-44.48-77-67.5-114.75-.57-.94-1.94-2.32-2.62-3.38ZM1072.5,464.25v-22.12c0-.22-1.44-3.37-1.5-3.75-.2-1.38.27-3.23,0-4.5-.06-.26-1.44-1.99-1.5-2.25-.19-.88.19-2.12,0-3-.06-.28-1.41-1.92-1.5-2.25-.17-.64.18-1.61,0-2.25-.11-.41-1.38-1.08-1.5-1.5-2.06-7.14-6.93-12.84-10.5-18.75-17.51-20.07-43.6-26.7-68.62-20.62-3.61.88-7.73,1.53-11.25,3-4.59,1.92-9.84,5.42-13.5,8.25-6.78,5.25-15.37,15.77-17.62,23.62-.12.42-1.39,1.09-1.5,1.5-.18.64.18,1.61,0,2.25-.11.41-1.39,1.09-1.5,1.5-.23.82.23,2.18,0,3-.11.41-1.39,1.09-1.5,1.5-.27.99.23,2.67,0,3.75-.06.26-1.44,1.99-1.5,2.25-.47,2.17-.08,4.04-.75,6.75-1.43,5.75-1.17,17.42,0,23.25.58,2.89.23,6.59.75,9,.06.26,1.44,1.99,1.5,2.25.19.88-.19,2.12,0,3,.06.26,1.44,1.99,1.5,2.25.19.88-.22,2.19,0,3,.1.36,2.89,4.11,3,4.5,1.22,4.25,3.43,7.8,6,11.25,8.45,11.32,22.44,19.82,35.62,22.88,6.84,1.59,18.76,2.69,26.25,2.25.26-.02.49-.73.75-.75,4.35-.27,7.82.1,12-.75,3.39-.69,9.41-2.36,12.75-3.75,10.51-4.39,25.03-17.35,28.12-28.12.12-.42,1.39-1.09,1.5-1.5.18-.64-.18-1.61,0-2.25.18-.67,2.45-1.81,1.5-4.12l-34.5-6c-.12.82.19,1.93,0,2.62-.22.81-2.29,2.78-3,5.25-.23.81-6.19,5.84-7.12,6.38-2.42,1.38-5.01,1.63-7.5,2.25-1.81.45-2.6.46-4.5.75-.28.04-.48.72-.75.75-2.22.23-6,.2-8.25,0-.27-.02-.47-.71-.75-.75-3.16-.4-5.8-.23-9-1.5-1.92-.76-6.89-3.48-8.25-4.5-.88-.66-2.7-2.49-3.38-3.38-2.98-3.88-4.13-8.24-5.25-12.75-.07-.3-.7-.47-.75-.75-.2-1.12-.16-4.07,0-5.25.14-1,.35-1.26,1.12-1.88h94.88ZM1090.12,429h30.75c.24,0,.44-.67.75-.75.55-.15,1.72.16,1.88,0,.17-.17-.17-1.35,0-1.88.12-.38,1.44-1.98,1.5-2.25.19-.88-.22-2.19,0-3,.11-.41,1.38-1.08,1.5-1.5.38-1.33.65-2.58,1.5-3.75.58-.8,2.58-2.79,3.38-3.38.16-.11.57.12.75,0,.51-.35,1.15-1.4,1.5-1.5.5-.14,1.13.18,1.5,0,.49-.23,1.97-1.44,2.25-1.5.86-.19,2.08.16,3,0,.29-.05.48-.72.75-.75,2.11-.26,6.08-.2,8.25,0,.27.02.47.71.75.75,2.34.3,4.47-.09,6.75.75,2.09.77,4.33,2.82,6,3.75.35.2.98-.14,1.12,0s-.14,1.36,0,1.5,1.36-.14,1.5,0-.2.77,0,1.12c.41.74,2.88,3.32,3,3.75.17.64-.17,1.61,0,2.25.09.33,1.44,1.97,1.5,2.25.47,2.16-.33,5.53,0,7.88-.84.1-1.85-.15-2.62,0-8.19,1.64-17.2,2.5-25.5,3.75-10.34,1.56-19.56,2.83-29.25,6.75s-22.09,13.05-25.12,23.62c-.12.42-1.39,1.09-1.5,1.5-.27.99.23,2.67,0,3.75-.06.26-1.44,1.99-1.5,2.25-.35,1.62-.35,15.63,0,17.25.06.26,1.44,1.99,1.5,2.25.23,1.08-.27,2.76,0,3.75.11.41,1.39,1.09,1.5,1.5.18.64-.17,1.61,0,2.25.16.57,3.76,4.97,4.5,6,.78,1.1,2.57,2.97,3,3.75.2.35-.14.98,0,1.12s.77-.2,1.12,0c1.39.77,3.79,3.53,5.25,4.5,3.37,2.24,11.32,5.14,15,6s6.55.48,10.5.75c2.08.14,4.39,1.01,7.5.75.27-.02.48-.73.75-.75,5.5-.38,7.62-.18,12.75-1.5,4.74-1.22,9.56-2.93,13.5-6,1.42-1.1,3.21-3.78,4.5-4.5.35-.2.98.14,1.12,0s-.2-.77,0-1.12c.47-.85,2-2.36,2.62-3.38l1.88.38c-.11,1.21.16,2.58,0,3.75-.34,2.4-1.11,5.84-1.5,8.25-.17,1.03.11,2.29,0,3.38,1.31-.59,2.39.72,2.62.75,6.14.89,20.41.42,27,0,.26-.02.48-.73.75-.75,2.34-.18,4.78.13,7.12,0,.04-1.12.24-1.98-.75-2.62.12-28.59,2.63-60.01,0-88.5-.43-4.65-.43-8.44-1.5-12.75-.4-1.61-.4-3.99-.75-5.25-.11-.41-1.39-1.09-1.5-1.5-.18-.64.18-1.61,0-2.25-.1-.35-.97-1.14-1.5-3-.5-1.75-5.06-5.82-6-7.5-.76-1.37-.74-.88-1.5-2.25-1.34-2.4-4.76-3.44-6.38-5.62-18.13-11.09-41.01-12.44-61.5-8.25-3.47.71-8.46,3.48-12,4.5-1.16.33-4.05,2.96-5.25,3.75-.31.2-1.94.55-2.25.75-2.51,1.66-8.46,8.46-10.12,10.88-.71,1.02-4.36,7-4.5,7.5-.18.64.18,1.61,0,2.25-.11.41-1.39,1.09-1.5,1.5-.27.99.23,2.67,0,3.75-.06.26-1.44,1.99-1.5,2.25-.19.88-.21,6.75,0,7.5.03.12,1.01,1.09,1.12,1.12ZM1312.5,382.5c-1.21.41-1.58-.7-1.88-.75-3.65-.66-8.82-1.16-12.75-.75-.27.03-.47.71-.75.75-2.09.31-4.72.17-6.75.75-5.28,1.5-13.31,7.05-16.88,11.62-.86,1.1-4.26,7.13-4.5,8.25s.17,2.85,0,4.12l-2.25-1.88c-.15-3.74.2-7.52,0-11.25-.01-.26-.73-.49-.75-.75-.18-2.85.13-5.77,0-8.62h-36c-.1,0,.15.77,0,1.12-.14.33-.75.52-.75.75v136.88c.84.1,1.85-.15,2.62,0,.29.06.48.72.75.75,6.53.82,24.1.72,30.75,0,.27-.03.47-.71.75-.75,1.03-.16,2.29.11,3.38,0v-78.38c0-.14,1.44-1.98,1.5-2.25.19-.88-.19-2.12,0-3,.11-.53,1.11-2.39,1.5-3.75.12-.41.95-1.1,1.5-3,.15-.51,6.18-7.11,7.12-7.88,2.18-1.76,5.66-3.6,8.25-4.5,5.37-1.88,8.74-1.18,14.25-1.5.26-.02.49-.74.75-.75,3.6-.19,7.27.14,10.88,0,.57-1.36-.75-2.48-.75-2.62v-32.62Z"/>
  <path d="M504,108.75c.4.4-.91.37,1.12,1.5,1.56.87,5.02,5.16,6.75,6.75,5.81,5.34,12.97,11.14,18.75,16.5,2.68,2.49,8.86,9.92,11.25,11.25,4.71,2.63,18.99,17.07,24.75,22.5s22.94,24.32,27.75,27c4.11,2.29,11.67,11.09,16.5,15.75,17.38,16.73,36.4,34.39,52.12,52.5,2.2-.36,1.17.54,1.5,1.12,2.15,3.85,11.35,9.65,13.5,13.5.76,1.37.74.88,1.5,2.25.66,1.19,4.15,4,4.5,5.25s-.09,3.31,1.5,4.5v266.25c-1.48,1.54-1,4.92-1.5,6.75-.11.41-1.38,1.08-1.5,1.5-.13.46.13,1.04,0,1.5-.1.33-4.25,4.42-4.88,4.88-.2.15-2.11,1.46-2.25,1.5-1.12.32-2.77.24-3.75,1.5h-399c-.69-1.27-1.99-.47-3-.75-.28-.08-.43-.6-.75-.75-.23-.11-.59.1-.75,0-.52-.31-.96-1.12-1.5-1.5-.72-.5-1.64-.58-2.62-1.88-.13-.18.11-.62,0-.75-.61-.71-2.88-2.59-3-3-.32-1.12-.24-2.77-1.5-3.75v-273.75c1.26-.98,1.18-2.63,1.5-3.75.1-.35,1.15-.99,1.5-1.5,2.55-3.75,8.77-8.14,10.5-11.25.95-1.71,15.59-17.24,17.62-18.38,1.7-.94,1.74-2.87,1.88-3,.14-.14,1.36.14,1.5,0,18.93-18.93,37.92-41.19,58.5-58.5-.8-1.6,2.73-2.73,3-3,.4-.4-.91-.37,1.12-1.5,5.67-3.16,14.58-17.09,20.25-20.25,2.24-1.25,5.81-5.13,7.12-7.5,10.46-7.36,18.89-19.17,28.88-27.75,12.54-10.78,26.7-25.04,39.75-36.75,3.44-3.09,7.1-8.21,11.25-9.75.42-.16,1.02.14,1.5,0,.31-.09.47-.7.75-.75,1.18-.21,6.41-.24,7.5,0,.27.06.43.62.75.75.98.39,3.02,1.02,3.75,1.5,4.17,2.77,8.81,8.36,12.75,12s9.7,7.83,13.12,11.25ZM295.5,299.62v237c0,.08,1.05,1.12,1.12,1.12h99.38c.1,0-.23-1.51.75-1.88-.25-27.24.34-54.51,0-81.75-.18-14.39-.43-29.81,0-44.25.18-5.87-.69-13.2,0-18.75.03-.27.7-.46.75-.75.17-.91-.22-2.21,0-3,.11-.41,1.38-1.08,1.5-1.5.13-.46-.13-1.04,0-1.5.18-.62,2.52-2.13,3-3,.2-.35-.14-.98,0-1.12s.77.2,1.12,0c.97-.54,2.01-2.41,3-3,.86-.51,2.16-.51,3-.75.3-.09.47-.69.75-.75,1.29-.27,2.91.59,3.75-.75h117.75c1.38,1.09,3.56,1.01,5.25,1.5.38.11.98,1.21,1.5,1.5,1.97,1.1,3.25,1.2,4.88,3.38.31.42,2.92,4.23,3,4.5.14.5-.17,1.13,0,1.5.21.45,1.5,2.11,1.5,2.25v147c0,.08,1.05,1.12,1.12,1.12h100.88v-237.38l-27-27c-3.33-4.75-8.16-7.22-12-13.12-2.19-1.43-9.07-7.57-10.5-10.12-.71-1.27-2.29-1.59-2.62-1.88-9.13-7.85-23.52-26.3-31.5-30.75-.74-.41-6.48-5.8-7.5-6.75-8.08-7.45-21.17-22.92-28.5-27-4.4-2.45-10.56-11.77-15-14.25-1.56-.87-5.02-5.16-6.75-6.75-11.07-10.18-22.33-21-33.75-30.75-1.49-1.27-3.33-4.3-5.25-3.75l-18,17.25c-1.79-.5-.89,1.26-1.12,1.5-6.98,6.98-16.36,14.73-23.62,21.75-3.38,3.27-12.75,14.08-15.75,15.75-2.04,1.13-.72,1.1-1.12,1.5-.14.14-1.36-.14-1.5,0s.14,1.36,0,1.5c-.27.27-3.8,1.4-3,3-34.59,31.31-67.56,67.56-100.5,100.5-.26.26-2.16-.7-1.5,1.5-1.69.3-3.76,2.79-4.5,4.12-.48.86-2.83,2.4-3,3ZM511.5,537v-125.62c0-.08-1.05-1.12-1.12-1.12h-76.5c-.16,0-.74,1.16-1.88.75v124.12c-.29.64.9,1.88,1.12,1.88h78.38Z"/>
  <path d="M802.88,333.75c.68,1.06,2.05,2.43,2.62,3.38,23.02,37.75,44.44,76.26,67.5,114.75,2.1,2.4,3.71,4.73,4.5,7.5.33,1.14,3.74,3.58,3,0-.92-4.48-.97-9.3-.75-14.25.97-21.88,1.06-45.09.75-67.5-.14-10.2-2.87-29.55,0-39,.43-1.42-1.17-2.3-.75-3.75.04-.13,1.05-1.12,1.12-1.12h36c.08,0,1.12,1.05,1.12,1.12v187.88c-2.34.13-4.79-.18-7.12,0-6.51.5-12.34.27-18.75,0-4.48-.19-9.01.14-13.5,0-1-.43-.97-1.66-1.12-1.88-1.36-1.93-3.26-4.05-4.5-6-15.36-24.11-29.76-49.23-45-74.25-6.39-8.46-10.64-17.64-16.5-26.25-2.59-3.8-5.09-8.2-7.5-12-.55-.87-1.89-1.17-1.5-2.62-.23-.25-1.5.97-1.5,1.12v121.88c0,.1-.77-.15-1.12,0-.33.14-.52.75-.75.75h-33.75c-.16,0-.74-1.16-1.88-.75l1.12-189h38.25Z"/>
  <path d="M763.12,295.5c-.31-.08-.72-.87-1.12-1.12l.75-190.88h77.62c8.09,1.46,16.22,2.23,24,5.25,3.29,1.28,8.91,3.95,12,6,2.12,1.41,5.65,5.72,7.5,6.75.35.2.98-.14,1.12,0s-.2.77,0,1.12c2.15,3.86,6.04,5.4,7.5,10.5.11.39,2.9,4.14,3,4.5.18.64-.18,1.61,0,2.25.11.41,1.39,1.09,1.5,1.5.22.81-.19,2.12,0,3,.06.26,1.44,1.99,1.5,2.25.34,1.55.31,2.73.75,4.5,1.34,5.39,1.34,20.11,0,25.5-.53,2.11-.37,3.5-.75,5.25-.06.28-1.41,1.92-1.5,2.25-.17.64.18,1.61,0,2.25-.11.41-1.39,1.09-1.5,1.5-.18.64.18,1.61,0,2.25-.34,1.22-4.26,5.93-4.5,6.75-.94,3.29-1.93,2.58-3,4.5-.76,1.37-.74.88-1.5,2.25-3.26,5.84-15.18,11.93-20.62,15.38-.64.41-1.21,1.37-1.88,1.88,1.12.6,1.17,1.65,1.5,2.25,1.5,2.74,8.53,12.6,9,14.25,1.52,5.32,8.77,14.99,12,20.25,4.43,7.21,8.99,15.2,13.5,22.5,2.01,3.26,4.99,6.98,6,10.5.24.83,3.28,3.18,3,4.88h-43.88c-.31-.41-.87-.73-1.12-1.12-.52-.81-.98-2.88-1.5-3.75-2.61-4.37-7.67-11.12-9-15.75-.12-.43-2.88-3.32-3-3.75-1.54-5.36-8.79-15.74-12-21-3.53-5.77-6.71-13.17-10.5-18.75-.12-.18.11-.59,0-.75-.31-.42-2.45-2.57-2.62-2.62-1.5-.43-2.12.75-2.25.75h-21c-.08,0-1.12,1.05-1.12,1.12v64.5c0,.08-1.05,1.12-1.12,1.12h-36.75ZM801,138.38v55.5c0,.08,1.05,1.12,1.12,1.12h27.75c.98,0,5.43-1.24,6.75-1.5,2.91-.58,6.21-1.04,9-2.25s7.31-4.7,9.38-7.12c1.31-1.53,2.44-3.3,3-5.25.12-.42,1.39-1.09,1.5-1.5.23-.82-.23-2.18,0-3,.11-.41,1.39-1.09,1.5-1.5.27-.99.26-13.05,0-14.25-.06-.26-1.44-1.99-1.5-2.25-.19-.88.22-2.19,0-3-.11-.41-1.38-1.08-1.5-1.5-.46-1.61-1.07-4.6-3-4.12-.66-2.77-6.65-6.5-9.38-7.5-2.5-.92-5.56-1.02-8.25-1.5-10.83-1.92-23.15.01-34.5-.75-.13,0-.26-.17-.38-.38-.38-.74-1.45.55-1.5.75Z"/>
  <path d="M1048.5,236.25h-96.38c-1.33.37-1.36,3.55-1.12,4.88.05.26,1.45,2.74,1.5,3,.2,1.12-.27,2.78,0,3.75.11.41,1.39,1.09,1.5,1.5.18.64-.18,1.61,0,2.25.07.27,2.73,4.15,3,4.5,3.55,4.55,9.26,7.85,14.62,9.38,1.55.44,2.13.46,3.75.75.29.05.48.72.75.75,8.18,1.01,14.69.1,22.5-2.25,1.68-1.37,8.82-5.93,9.38-7.88.43-1.51.66-2.37,1.5-3.75.57-.94,1.94-2.32,2.62-3.38,1.21.12,2.59-.17,3.75,0,.34.05,1.96.54,3,.75,7.46,1.53,15.75,3.3,23.25,4.5,1.03.16,2.29-.11,3.38,0-.11.83.17,1.88,0,2.62-.63,2.76-3.62,6.66-4.5,9.75-.63,2.2-6.34,7.67-7.5,9.75s-1.1.72-1.5,1.12.91.37-1.12,1.5c-1.07.6-2.57,2.8-3.75,3.75-2.16,1.74-13,8.25-15.75,9-5.68,1.55-10.44,2.23-16.5,3-9.65,1.22-19.2.9-28.5-.75-14.84-2.64-22.07-6.4-33.75-16.5-2.12-1.83-10.96-11.58-11.62-13.88s-1.98-5.32-3-7.5c-1.82-3.89-2.13-5.7-3-9.75-.06-.26-1.44-1.99-1.5-2.25-.59-2.71-.18-7.29-.75-10.5-1.13-6.35-1.27-14.63,0-21,.49-2.43.32-4.77.75-6.75.06-.26,1.44-1.99,1.5-2.25.23-1.08-.27-2.76,0-3.75.11-.41,1.39-1.09,1.5-1.5.23-.82-.23-2.18,0-3,.11-.41,1.39-1.09,1.5-1.5.18-.64-.18-1.61,0-2.25.36-1.31,4.12-6.16,4.5-7.5.86-2.99,5.22-8.68,7.5-11.25,7.78-8.78,18.26-15.46,29.62-18.38,27.44-7.05,53.09-2.17,72.38,20.62,2.14,4.44,6.1,7.13,7.5,12,.11.39,2.9,4.14,3,4.5.18.64-.18,1.61,0,2.25.11.41,1.39,1.09,1.5,1.5.18.64-.17,1.61,0,2.25.09.33,1.44,1.97,1.5,2.25.19.88-.19,2.12,0,3,.06.26,1.44,1.99,1.5,2.25.23,1.07-.19,2.6,0,3.75.07.42,1.5,3.53,1.5,3.75v22.88ZM1008,210c-.27-1.92.38-4.61,0-6.38-.06-.26-1.44-1.99-1.5-2.25-.19-.88.22-2.19,0-3-.12-.42-2.5-3.69-3-4.5-3.26-5.27-7.05-9.52-13.12-11.62-.8-.28-1.41-.73-1.5-.75-1.24-.28-3.11.18-4.5,0-.28-.04-.48-.72-.75-.75-1.43-.15-3.82-.15-5.25,0-.27.03-.47.71-.75.75-1.41.18-3.16-.24-4.5,0-.28.05-.44.66-.75.75-6.68,1.9-11.44,5.9-15.38,11.62-2.08,3.03-4.33,7.97-5.25,11.25-.13.47.14,1.06,0,1.5-.1.3-.66.45-.75.75-.28.9.51,2.62,1.12,2.62h55.88Z"/>
  <path d="M1072.5,464.25h-94.88c-.77.62-.99.87-1.12,1.88-.16,1.18-.2,4.13,0,5.25.05.28.68.45.75.75,1.12,4.51,2.27,8.87,5.25,12.75.68.88,2.49,2.71,3.38,3.38,1.36,1.02,6.33,3.74,8.25,4.5,3.2,1.27,5.84,1.1,9,1.5.28.04.48.73.75.75,2.25.2,6.03.23,8.25,0,.27-.03.47-.71.75-.75,1.9-.29,2.69-.3,4.5-.75,2.49-.62,5.08-.87,7.5-2.25.93-.53,6.89-5.56,7.12-6.38.71-2.47,2.78-4.44,3-5.25.19-.69-.12-1.81,0-2.62l34.5,6c.95,2.32-1.32,3.46-1.5,4.12s.18,1.61,0,2.25c-.11.41-1.38,1.08-1.5,1.5-3.09,10.78-17.62,23.74-28.12,28.12-3.34,1.39-9.36,3.06-12.75,3.75-4.18.85-7.65.48-12,.75-.26.02-.49.73-.75.75-7.49.44-19.41-.66-26.25-2.25-13.19-3.06-27.17-11.55-35.62-22.88-2.57-3.45-4.78-7-6-11.25-.11-.39-2.9-4.14-3-4.5-.22-.81.19-2.12,0-3-.06-.26-1.44-1.99-1.5-2.25-.19-.88.19-2.12,0-3-.06-.26-1.44-1.99-1.5-2.25-.52-2.41-.17-6.11-.75-9-1.17-5.83-1.43-17.5,0-23.25.67-2.71.28-4.58.75-6.75.06-.26,1.44-1.99,1.5-2.25.23-1.08-.27-2.76,0-3.75.11-.41,1.39-1.09,1.5-1.5.23-.82-.23-2.18,0-3,.11-.41,1.39-1.09,1.5-1.5.18-.64-.18-1.61,0-2.25.11-.41,1.38-1.08,1.5-1.5,2.25-7.85,10.84-18.38,17.62-23.62,3.66-2.83,8.91-6.33,13.5-8.25,3.52-1.47,7.64-2.12,11.25-3,25.02-6.08,51.12.56,68.62,20.62,3.57,5.91,8.44,11.61,10.5,18.75.12.42,1.39,1.09,1.5,1.5.18.64-.17,1.61,0,2.25.09.33,1.44,1.97,1.5,2.25.19.88-.19,2.12,0,3,.06.26,1.44,1.99,1.5,2.25.27,1.27-.2,3.12,0,4.5.06.38,1.5,3.53,1.5,3.75v22.12ZM976.5,438.75h55.88c.62,0,1.4-1.73,1.12-2.62-.11-.35-1.44-1.98-1.5-2.25-.28-1.28.32-3.33,0-4.5-.11-.41-1.39-1.09-1.5-1.5-.18-.64.18-1.61,0-2.25-.1-.35-.97-1.14-1.5-3-.28-.96-7.25-8.46-8.62-9.38-2.53-1.68-6.51-2.25-9-3.75-6.93-.18-13.78-.26-19.5,3-1.75,1-3.89,3.74-5.25,4.5-.35.2-.98-.14-1.12,0s.2.77,0,1.12c-.52.93-2.27,1.99-3,3-2.63,3.66-3.35,6.32-4.5,10.5-.11.41-1.39,1.09-1.5,1.5-.39,1.41.27,4,0,5.62Z"/>
  <path d="M1090.12,429c-.12-.03-1.09-1.01-1.12-1.12-.21-.75-.19-6.62,0-7.5.06-.26,1.44-1.99,1.5-2.25.23-1.08-.27-2.76,0-3.75.11-.41,1.39-1.09,1.5-1.5.18-.64-.18-1.61,0-2.25.14-.5,3.79-6.48,4.5-7.5,1.66-2.41,7.62-9.21,10.12-10.88.31-.2,1.94-.55,2.25-.75,1.2-.79,4.09-3.42,5.25-3.75,3.54-1.02,8.53-3.79,12-4.5,20.49-4.19,43.37-2.84,61.5,8.25,1.62,2.19,5.04,3.22,6.38,5.62.76,1.37.74.88,1.5,2.25.94,1.68,5.5,5.75,6,7.5.53,1.86,1.4,2.65,1.5,3,.18.64-.18,1.61,0,2.25.11.41,1.39,1.09,1.5,1.5.35,1.26.35,3.64.75,5.25,1.07,4.31,1.07,8.1,1.5,12.75,2.63,28.49.12,59.91,0,88.5.99.64.79,1.51.75,2.62-2.34.13-4.79-.18-7.12,0-.27.02-.49.73-.75.75-6.59.42-20.86.89-27,0-.24-.03-1.31-1.34-2.62-.75.11-1.08-.17-2.35,0-3.38.39-2.41,1.16-5.85,1.5-8.25.16-1.17-.11-2.54,0-3.75l-1.88-.38c-.62,1.02-2.15,2.52-2.62,3.38-.2.36.14.98,0,1.12s-.77-.2-1.12,0c-1.29.72-3.08,3.4-4.5,4.5-3.94,3.07-8.76,4.78-13.5,6-5.13,1.32-7.25,1.12-12.75,1.5-.27.02-.48.73-.75.75-3.11.26-5.42-.61-7.5-.75-3.95-.27-6.69.14-10.5-.75s-11.63-3.76-15-6c-1.46-.97-3.86-3.73-5.25-4.5-.35-.2-.98.14-1.12,0s.2-.77,0-1.12c-.43-.78-2.22-2.65-3-3.75-.74-1.03-4.34-5.43-4.5-6-.17-.64.18-1.61,0-2.25-.11-.41-1.39-1.09-1.5-1.5-.27-.99.23-2.67,0-3.75-.06-.26-1.44-1.99-1.5-2.25-.35-1.62-.35-15.63,0-17.25.06-.26,1.44-1.99,1.5-2.25.23-1.08-.27-2.76,0-3.75.11-.41,1.38-1.08,1.5-1.5,3.04-10.58,15.01-19.54,25.12-23.62s18.91-5.19,29.25-6.75c8.3-1.25,17.31-2.11,25.5-3.75.77-.15,1.79.1,2.62,0-.33-2.35.47-5.72,0-7.88-.06-.28-1.41-1.92-1.5-2.25-.17-.64.17-1.61,0-2.25-.12-.43-2.59-3.01-3-3.75-.2-.36.14-.98,0-1.12s-1.36.14-1.5,0,.14-1.36,0-1.5-.77.2-1.12,0c-1.67-.93-3.91-2.98-6-3.75-2.28-.84-4.41-.45-6.75-.75-.28-.04-.48-.73-.75-.75-2.17-.2-6.14-.26-8.25,0-.27.03-.46.7-.75.75-.92.16-2.14-.19-3,0-.28.06-1.76,1.27-2.25,1.5-.37.18-1-.14-1.5,0-.35.1-.99,1.15-1.5,1.5-.18.12-.59-.11-.75,0-.8.58-2.79,2.58-3.38,3.38-.85,1.17-1.12,2.42-1.5,3.75-.12.42-1.39,1.09-1.5,1.5-.22.81.19,2.12,0,3-.06.27-1.38,1.87-1.5,2.25-.17.52.17,1.71,0,1.88-.16.16-1.32-.15-1.88,0-.31.08-.51.75-.75.75h-30.75ZM1170,456.75c-1.83.12-3.82-.18-5.62,0-6.35.63-13.34,1.86-19.5,3-2.61.48-5.03.89-7.5,1.5s-6.2,1.64-8.25,3c-.63.42-5.52,5.24-5.62,5.62-.14.49.17,1.12,0,1.5-.22.47-1.44,1.98-1.5,2.25-.23,1.07-.25,10.36,0,11.25.11.41,1.38,1.08,1.5,1.5.13.46-.13,1.04,0,1.5.11.38,5.09,5.31,5.62,5.62.16.1.52-.11.75,0,.31.14.46.63.75.75.78.31,2.8.51,3.75.75.3.07.47.7.75.75,2.12.38,10.53.32,12.75,0,.5-.07,3.05-1.29,3.75-1.5,3.97-1.17,6.65-2.01,9.75-4.5,1.85-1.48,2.92-3.26,4.12-4.88.51-.69,2.9-3.4,3-3.75.14-.5-.17-1.13,0-1.5.21-.45,1.5-2.11,1.5-2.25v-20.62Z"/>
  <path d="M1104,294.75c-.13.13-.72-.17-1.12,0-.33.14-.52.75-.75.75h-34.5c-.08,0-1.12-1.05-1.12-1.12v-139.88c2.34-.13,4.79.18,7.12,0,6.3-.49,11.78-.32,18,0,3.61.18,7.27-.13,10.88,0v17.25c.96.35,2.85-1.34,3-1.88.56-1.97,3.16-5.82,4.88-7.12,4.81-3.64,10.41-7.14,16.5-9,2.11-.64,3.93-.44,6-.75.28-.04.48-.72.75-.75,4.65-.48,15.69-.56,20.25,0,.27.03.46.7.75.75,2.02.36,4.79.33,6.75.75.27.06,1.82,1.33,2.25,1.5s1.08-.18,1.5,0c6.75,2.82,12.62,8.21,16.88,13.88,2.03,2.7,3.6,4.36,4.5,7.5.12.42,1.39,1.09,1.5,1.5.18.64-.17,1.61,0,2.25.09.33,1.41,1.92,1.5,2.25,1.46,5.35,1.35,11.26,3,16.5v95.25c-.38.25-.92,1.12-1.12,1.12h-35.25c-.08,0-1.12-1.05-1.12-1.12v-87c0-.25-.69-.46-.75-.75-.56-2.78-.59-5.63-1.5-8.25-.27-.78-.47-1.29-.75-2.25-.04-.14-1.35-2.05-1.5-2.25-.68-.93-3.98-4.28-4.88-4.88-1.21-.8-3.4-1.06-4.5-1.5-.43-.17-1.98-1.44-2.25-1.5-.87-.19-2.08.16-3,0-.29-.05-.48-.72-.75-.75-2.22-.27-6.74-.23-9,0-.27.03-.47.71-.75.75-1.16.17-2.68-.23-3.75,0-.27.06-1.82,1.33-2.25,1.5s-1.09-.18-1.5,0c-2.72,1.18-7.53,5.34-9.38,7.88-.85,1.17-1.12,2.42-1.5,3.75-.12.42-1.39,1.09-1.5,1.5-.22.81.19,2.12,0,3-.06.27-1.5,2.11-1.5,2.25v88.88Z"/>
  <path d="M1227,120c.08-.08,1.49.21,1.88-.75,10.61,1.12,24.28-1.51,34.5,0,.27.04.45.67.75.75,1.5.41,2.58-.8,1.88,2.62-.96,4.65-.25,5.06,0,9,.45,7.22-.33,14.86,0,22.12h30.38c.08,0,1.12,1.05,1.12,1.12v29.62h-31.5v71.62c1.17,1.05,4.24,5.98,5.62,6.38.47.13,1.05-.14,1.5,0,.31.1.47.69.75.75.88.18,2.08-.16,3,0,.29.05.48.72.75.75,2.83.35,8.31.24,11.25,0,1.4-.11,4.2-.49,6-.75.24-.03,1.31-1.34,2.62-.75v31.5c-1.08.11-2.34-.16-3.38,0-13.28,2.1-26.87,1.94-39.75-.75-3.06-.64-5.27-1.39-8.25-2.25-.41-.12-1.1-.95-3-1.5-.57-.16-7.74-6.74-8.62-7.88-2.75-3.54-3.89-7.92-6-12-1.58-27.19-.38-55.55-.75-83.25-.98-.36-.64-1.88-.75-1.88h-18.38c-.08,0-1.12-1.05-1.12-1.12v-28.5c0-.08,1.05-1.12,1.12-1.12h18.38v-33.75Z"/>
  <path d="M1312.5,382.5v32.62c0,.15,1.32,1.27.75,2.62-3.6.14-7.27-.19-10.88,0-.26.01-.49.73-.75.75-5.51.32-8.88-.38-14.25,1.5-2.59.9-6.07,2.74-8.25,4.5-.95.76-6.98,7.36-7.12,7.88-.55,1.9-1.38,2.59-1.5,3-.39,1.36-1.39,3.22-1.5,3.75-.19.88.19,2.12,0,3-.06.27-1.5,2.11-1.5,2.25v78.38c-1.08.11-2.34-.16-3.38,0-.28.04-.48.72-.75.75-6.65.72-24.22.82-30.75,0-.27-.03-.46-.69-.75-.75-.77-.15-1.79.1-2.62,0v-136.88c0-.23.61-.42.75-.75.15-.36-.1-1.12,0-1.12h36c.13,2.85-.18,5.77,0,8.62.02.26.74.49.75.75.2,3.73-.15,7.51,0,11.25l2.25,1.88c.17-1.28-.25-2.96,0-4.12s3.64-7.15,4.5-8.25c3.56-4.58,11.59-10.12,16.88-11.62,2.03-.58,4.66-.44,6.75-.75.28-.04.48-.72.75-.75,3.93-.41,9.1.09,12.75.75.3.05.67,1.16,1.88.75Z"/>
  <path class="st0" d="M295.5,299.62c.17-.6,2.52-2.14,3-3,.74-1.33,2.81-3.82,4.5-4.12-.66-2.2,1.24-1.24,1.5-1.5,32.94-32.94,65.91-69.19,100.5-100.5-.8-1.6,2.73-2.73,3-3,.14-.14-.14-1.36,0-1.5s1.36.14,1.5,0c.4-.4-.91-.37,1.12-1.5,3-1.67,12.37-12.48,15.75-15.75,7.27-7.02,16.65-14.77,23.62-21.75.24-.24-.67-2,1.12-1.5l18-17.25c1.92-.55,3.76,2.48,5.25,3.75,11.42,9.75,22.68,20.57,33.75,30.75,1.73,1.59,5.19,5.88,6.75,6.75,4.44,2.48,10.6,11.8,15,14.25,7.33,4.08,20.42,19.55,28.5,27,1.02.95,6.76,6.34,7.5,6.75,7.98,4.45,22.37,22.9,31.5,30.75.33.29,1.92.6,2.62,1.88,1.43,2.56,8.31,8.7,10.5,10.12,3.84,5.9,8.67,8.37,12,13.12l27,27v237.38h-100.88c-.08,0-1.12-1.05-1.12-1.12v-147c0-.14-1.29-1.8-1.5-2.25-.17-.37.14-1,0-1.5-.08-.27-2.69-4.08-3-4.5-1.62-2.18-2.91-2.27-4.88-3.38-.52-.29-1.12-1.39-1.5-1.5-1.69-.49-3.87-.41-5.25-1.5h-117.75c-.84,1.34-2.46.48-3.75.75-.28.06-.45.66-.75.75-.84.24-2.14.24-3,.75-.99.59-2.03,2.46-3,3-.35.2-.98-.14-1.12,0s.2.77,0,1.12c-.48.87-2.82,2.38-3,3-.13.46.13,1.04,0,1.5-.12.42-1.39,1.09-1.5,1.5-.22.79.17,2.09,0,3-.05.29-.72.48-.75.75-.69,5.55.18,12.88,0,18.75-.43,14.44-.18,29.86,0,44.25.34,27.24-.25,54.51,0,81.75-.98.37-.65,1.88-.75,1.88h-99.38c-.08,0-1.12-1.05-1.12-1.12v-237Z"/>
  <path class="st0" d="M511.5,537h-78.38c-.22,0-1.42-1.24-1.12-1.88v-124.12c1.13.41,1.72-.75,1.88-.75h76.5c.08,0,1.12,1.05,1.12,1.12v125.62Z"/>
  <path class="st0" d="M801,138.38c.05-.2,1.12-1.49,1.5-.75.12.2.24.37.38.38,11.35.76,23.67-1.17,34.5.75,2.69.48,5.75.58,8.25,1.5,2.72,1,8.72,4.73,9.38,7.5,1.93-.47,2.54,2.52,3,4.12.12.42,1.39,1.09,1.5,1.5.22.81-.19,2.12,0,3,.06.26,1.44,1.99,1.5,2.25.26,1.2.27,13.26,0,14.25-.11.41-1.39,1.09-1.5,1.5-.23.82.23,2.18,0,3-.11.41-1.38,1.08-1.5,1.5-.56,1.95-1.69,3.72-3,5.25-2.07,2.43-6.63,5.93-9.38,7.12s-6.09,1.67-9,2.25c-1.32.26-5.77,1.5-6.75,1.5h-27.75c-.08,0-1.12-1.05-1.12-1.12v-55.5Z"/>
  <path class="st0" d="M1008,210h-55.88c-.62,0-1.41-1.73-1.12-2.62.09-.3.65-.45.75-.75.14-.44-.13-1.03,0-1.5.92-3.28,3.17-8.22,5.25-11.25,3.94-5.72,8.69-9.73,15.38-11.62.31-.09.47-.7.75-.75,1.34-.24,3.09.18,4.5,0,.28-.04.48-.72.75-.75,1.43-.15,3.82-.15,5.25,0,.27.03.47.71.75.75,1.39.18,3.26-.28,4.5,0,.09.02.7.47,1.5.75,6.08,2.11,9.87,6.35,13.12,11.62.5.81,2.88,4.08,3,4.5.22.81-.19,2.12,0,3,.06.26,1.44,1.99,1.5,2.25.38,1.76-.27,4.45,0,6.38Z"/>
  <path class="st0" d="M976.5,438.75c.27-1.63-.39-4.21,0-5.62.11-.41,1.39-1.09,1.5-1.5,1.15-4.18,1.87-6.84,4.5-10.5.73-1.01,2.48-2.07,3-3,.2-.35-.14-.98,0-1.12s.77.2,1.12,0c1.36-.76,3.5-3.5,5.25-4.5,5.72-3.26,12.57-3.18,19.5-3,2.49,1.5,6.47,2.07,9,3.75,1.38.92,8.35,8.42,8.62,9.38.53,1.86,1.4,2.65,1.5,3,.18.64-.18,1.61,0,2.25.11.41,1.39,1.09,1.5,1.5.32,1.17-.28,3.22,0,4.5.06.27,1.39,1.9,1.5,2.25.28.9-.5,2.62-1.12,2.62h-55.88Z"/>
  <path class="st0" d="M1170,456.75v20.62c0,.14-1.29,1.8-1.5,2.25-.17.37.14,1,0,1.5-.1.35-2.49,3.06-3,3.75-1.2,1.62-2.28,3.39-4.12,4.88-3.1,2.49-5.78,3.33-9.75,4.5-.7.21-3.25,1.43-3.75,1.5-2.22.32-10.63.38-12.75,0-.28-.05-.45-.68-.75-.75-.95-.24-2.97-.44-3.75-.75-.29-.12-.44-.61-.75-.75-.23-.11-.59.1-.75,0-.53-.32-5.52-5.24-5.62-5.62-.13-.46.13-1.04,0-1.5-.12-.42-1.39-1.09-1.5-1.5-.25-.89-.23-10.18,0-11.25.06-.27,1.28-1.78,1.5-2.25.17-.38-.14-1.01,0-1.5.11-.38,4.99-5.21,5.62-5.62,2.05-1.36,5.73-2.38,8.25-3s4.89-1.02,7.5-1.5c6.16-1.14,13.15-2.37,19.5-3,1.81-.18,3.79.12,5.62,0Z"/>
</svg>